<svg enable-background="new 0 0 512 512" height="512" viewBox="0 0 512 512" width="512" xmlns="http://www.w3.org/2000/svg"><path d="m512 256c0-68.38-26.629-132.667-74.98-181.02l-103.152 53.02-77.868 128 149.826 29.992z" fill="#fcbe2c"/><path d="m256 512c68.38 0 132.667-26.629 181.02-74.98l-56.955-101.813-124.065-79.207-33.685 160.049z" fill="#fcbe2c"/><path d="m0 256c0 68.38 26.629 132.667 74.98 181.02l90.51-35.332 90.51-145.688-146.43-44.127z" fill="#ffee42"/><path d="m256 0c-68.38 0-132.667 26.629-181.02 74.98l63.222 105.547 117.798 75.473 32.209-128z" fill="#ffee42"/><g fill="#fed943"><path d="m437.02 74.98c-48.353-48.351-112.64-74.98-181.02-74.98v256z"/><path d="m74.98 74.98c-48.351 48.353-74.98 112.64-74.98 181.02h256z"/><path d="m256 256 181.02 181.02c48.351-48.353 74.98-112.64 74.98-181.02z"/><path d="m74.98 437.02c48.353 48.351 112.64 74.98 181.02 74.98v-256z"/></g><path d="m79.719 256c0 97.202 79.079 176.281 176.281 176.281l30.074-168.466-30.074-184.096c-97.201 0-176.281 79.079-176.281 176.281z" fill="#fff58e"/><path d="m256 79.719v352.561c97.201 0 176.281-79.079 176.281-176.281s-79.08-176.28-176.281-176.28z" fill="#ffee42"/><path d="m228.162 301.147v-30.31h27.838l9.426-14.837-9.426-15.163h-27.838v-30.31h27.838l13.329-14.197-13.329-15.803h-27.838v-28.394h-30v28.394h-29.541v30h29.541v90.62h-29.541v30h29.541v28.395h30v-28.395h27.838l9.426-15.118-9.426-14.882z" fill="#27eb8d"/><path d="m334.072 225.683c0-24.899-20.257-45.155-45.155-45.155h-2.398v-28.394h-30v28.394h-.519v30h32.917c8.356 0 15.155 6.799 15.155 15.155s-6.799 15.155-15.155 15.155h-32.917v30h32.917c8.356 0 15.155 6.799 15.155 15.155s-6.799 15.155-15.155 15.155h-32.917v30h.518v28.394h30v-28.394h2.398c24.898 0 45.155-20.256 45.155-45.155 0-11.581-4.386-22.154-11.58-30.155 7.195-8.002 11.581-18.575 11.581-30.155z" fill="#1db9a0"/></svg>